<?xml version="1.0" standalone="no"?>
<!DOCTYPE svg PUBLIC "-//W3C//DTD SVG 20010904//EN"
 "http://www.w3.org/TR/2001/REC-SVG-20010904/DTD/svg10.dtd">
<svg version="1.0" xmlns="http://www.w3.org/2000/svg"
 width="968.000000pt" height="968.000000pt" viewBox="0 0 968.000000 968.000000"
 preserveAspectRatio="xMidYMid meet">
<metadata>
Created by potrace 1.14, written by Peter Selinger 2001-2017
</metadata>
<g transform="translate(0.000000,968.000000) scale(0.100000,-0.100000)"
fill="#000000" stroke="none">
<path d="M9395 9357 c-22 -12 -41 -25 -43 -29 -2 -4 -11 -8 -20 -8 -8 0 -23
-6 -31 -14 -15 -12 -65 -40 -291 -159 -52 -27 -102 -56 -111 -63 -8 -8 -19
-14 -24 -14 -4 0 -42 -20 -84 -44 -42 -24 -107 -60 -146 -81 -38 -21 -77 -44
-86 -51 -9 -8 -19 -11 -22 -8 -4 4 -9 -1 -13 -10 -3 -9 -10 -14 -14 -11 -4 3
-18 -4 -31 -14 -13 -10 -34 -21 -46 -25 -13 -4 -23 -12 -23 -17 0 -5 -4 -9 -9
-9 -9 0 -381 -218 -391 -230 -3 -3 -22 -14 -42 -25 -21 -11 -38 -22 -38 -26 0
-3 -12 -11 -27 -18 -16 -7 -57 -32 -93 -55 -60 -40 -425 -282 -475 -316 -92
-63 -112 -77 -129 -92 -11 -10 -24 -18 -28 -18 -5 0 -14 -5 -21 -10 -27 -23
-56 -46 -77 -60 -55 -38 -227 -166 -244 -182 -11 -10 -23 -18 -26 -18 -4 0
-16 -8 -27 -17 -11 -10 -35 -29 -53 -43 -18 -14 -42 -33 -53 -42 -11 -10 -23
-18 -26 -18 -3 0 -17 -10 -31 -22 -14 -13 -81 -67 -148 -122 -68 -54 -129
-104 -135 -110 -7 -6 -35 -29 -62 -51 -28 -22 -55 -44 -61 -50 -6 -5 -35 -31
-65 -57 -291 -250 -424 -374 -714 -663 -208 -208 -391 -400 -451 -472 -14 -18
-45 -52 -68 -76 -22 -24 -59 -66 -81 -93 -72 -87 -117 -139 -128 -149 -7 -6
-16 -18 -22 -26 -5 -9 -66 -85 -134 -170 -127 -157 -299 -383 -361 -474 -18
-27 -36 -52 -40 -55 -3 -3 -28 -38 -55 -79 -28 -41 -81 -119 -118 -175 -37
-56 -78 -118 -89 -138 -12 -21 -25 -38 -30 -38 -4 0 -8 -6 -8 -13 0 -7 -9 -23
-20 -35 -11 -12 -20 -25 -20 -31 0 -5 -15 -31 -33 -57 -42 -64 -80 -128 -77
-133 1 -2 -3 -7 -8 -10 -5 -3 -19 -24 -31 -46 -11 -22 -34 -62 -51 -90 -16
-27 -37 -66 -47 -85 -9 -19 -20 -37 -23 -40 -24 -19 -382 -732 -431 -857 -5
-13 -12 -23 -16 -23 -5 0 -28 39 -52 88 -25 48 -53 99 -64 115 -10 15 -15 27
-10 27 4 0 4 4 -2 8 -5 4 -21 27 -34 52 -39 76 -91 173 -115 215 -12 22 -40
74 -63 115 -117 215 -197 357 -211 373 -8 9 -11 17 -7 17 4 0 1 8 -7 18 -8 9
-43 67 -78 127 -34 61 -66 112 -71 113 -5 2 -9 12 -9 22 0 10 -4 20 -8 22 -8
3 -142 220 -167 269 -5 10 -13 19 -17 19 -5 0 -8 4 -8 10 0 5 -16 32 -35 59
-19 26 -35 53 -35 59 0 6 -3 12 -7 14 -5 2 -53 70 -107 151 -55 82 -106 155
-113 163 -8 8 -11 14 -6 14 4 0 3 4 -2 8 -6 4 -22 23 -35 42 -14 19 -28 40
-32 45 -88 114 -116 154 -111 159 4 3 2 6 -4 6 -6 0 -32 29 -59 65 -27 36 -59
77 -71 91 -13 14 -23 29 -23 35 0 6 -9 5 -22 -2 -19 -10 -165 -124 -208 -162
-8 -7 -69 -56 -135 -107 -66 -52 -127 -100 -135 -107 -8 -7 -51 -40 -95 -75
-44 -34 -82 -65 -85 -68 -4 -5 -124 -99 -158 -125 -8 -5 -24 -20 -37 -32 -12
-13 -26 -23 -31 -23 -5 0 -22 -13 -39 -28 -16 -15 -50 -43 -75 -62 -25 -19
-52 -40 -60 -47 -8 -7 -51 -40 -95 -75 -44 -34 -82 -65 -85 -68 -3 -3 -48 -39
-100 -80 -102 -80 -102 -79 -142 -113 l-27 -22 92 -116 c134 -169 148 -189
335 -469 76 -113 145 -221 155 -240 16 -30 49 -81 74 -115 5 -6 19 -30 32 -55
13 -25 29 -52 36 -60 7 -8 24 -35 37 -60 22 -39 56 -98 192 -330 15 -25 39
-70 54 -100 15 -30 33 -61 39 -68 7 -7 20 -30 30 -50 9 -20 22 -40 27 -44 6
-4 7 -8 3 -8 -5 0 0 -12 11 -27 10 -16 31 -53 47 -83 16 -30 41 -77 56 -105
40 -73 119 -225 180 -345 30 -58 56 -107 59 -110 7 -7 84 -163 84 -172 1 -3 4
-10 8 -14 11 -11 311 -620 412 -836 20 -43 51 -111 70 -150 46 -99 159 -343
184 -398 11 -25 36 -80 55 -122 19 -42 33 -79 29 -82 -3 -3 -1 -6 5 -6 6 0 16
-14 22 -30 l10 -30 718 2 717 3 14 75 c7 41 14 89 17 105 2 17 4 30 5 30 1 0
4 16 6 35 10 73 12 85 14 88 1 1 4 11 5 22 1 11 4 23 5 28 1 4 2 11 1 16 -1 4
3 23 9 41 6 18 12 41 14 51 3 10 9 39 15 64 7 25 13 52 15 60 2 8 10 35 17 60
6 25 13 52 14 60 2 8 17 66 35 128 17 62 33 119 34 125 1 7 9 35 18 62 9 28
28 91 43 140 15 50 30 99 35 110 6 17 82 249 85 265 1 3 7 19 14 35 7 17 14
37 16 45 6 27 136 381 164 445 5 11 26 63 46 115 21 52 43 109 51 125 7 17 27
66 45 110 18 44 37 83 42 86 5 3 7 8 6 10 -2 2 4 22 13 44 9 22 17 45 18 50 1
6 9 18 17 28 9 9 13 17 10 17 -3 0 21 56 53 125 32 69 56 125 52 125 -4 0 -2
4 4 8 10 7 124 234 124 248 0 4 6 15 13 23 7 9 26 45 42 81 17 36 33 67 36 70
3 3 23 40 44 83 21 42 42 77 48 77 6 0 8 3 5 6 -4 3 10 36 30 72 67 126 299
527 365 632 37 58 81 131 99 163 18 31 36 57 40 57 5 0 8 7 8 15 0 8 5 15 10
15 6 0 10 5 10 10 0 9 165 265 180 280 3 3 10 13 15 22 13 23 98 143 135 193
16 22 34 50 40 63 5 12 14 22 20 22 5 0 10 5 10 11 0 9 43 73 60 89 3 3 14 18
24 35 21 32 32 47 59 76 9 10 17 21 17 24 0 3 5 11 10 18 6 7 24 30 40 52 16
22 36 47 45 56 8 9 15 20 15 26 0 6 7 13 15 17 8 3 15 12 15 21 0 8 4 15 8 15
5 0 24 21 42 48 19 26 39 52 45 58 5 6 21 26 35 44 30 40 149 188 170 211 8 9
26 32 40 50 14 18 32 40 40 49 41 42 120 143 120 153 0 5 3 7 6 4 4 -4 22 14
41 38 19 25 44 55 56 68 12 13 37 41 56 62 308 356 790 847 1156 1180 49 44
96 87 105 95 9 8 49 44 90 80 41 36 80 70 86 75 6 6 32 28 59 50 26 22 60 51
75 65 29 26 99 84 132 110 11 8 33 27 49 43 16 15 32 27 34 27 3 0 51 37 107
83 57 46 153 120 213 165 61 45 115 85 120 90 6 4 26 18 45 32 19 13 37 27 40
30 12 13 70 50 79 50 6 0 14 6 18 14 4 8 26 24 48 37 22 13 42 26 45 29 7 9
149 102 182 119 38 20 39 32 9 76 -15 22 -67 107 -115 188 -49 81 -92 149 -95
151 -3 2 -24 -6 -46 -17z"/>
</g>
</svg>
