<?xml version="1.0" encoding="UTF-8" standalone="no"?>
<svg
   xmlns:dc="http://purl.org/dc/elements/1.1/"
   xmlns:cc="http://creativecommons.org/ns#"
   xmlns:rdf="http://www.w3.org/1999/02/22-rdf-syntax-ns#"
   xmlns:svg="http://www.w3.org/2000/svg"
   xmlns="http://www.w3.org/2000/svg"
   xmlns:sodipodi="http://sodipodi.sourceforge.net/DTD/sodipodi-0.dtd"
   xmlns:inkscape="http://www.inkscape.org/namespaces/inkscape"
   version="1.1"
   x="0px"
   y="0px"
   viewBox="0 0 86.018417 16.936886"
   id="svg10"
   width="86.018417"
   height="16.936886"
   inkscape:version="0.92.5 (2060ec1f9f, 2020-04-08)"
   sodipodi:docname="wave-blue.svg">
  <metadata
     id="metadata7">
    <rdf:RDF>
      <cc:Work
         rdf:about="">
        <dc:format>image/svg+xml</dc:format>
        <dc:type
           rdf:resource="http://purl.org/dc/dcmitype/StillImage" />
        <dc:title></dc:title>
      </cc:Work>
    </rdf:RDF>
  </metadata>
  <defs
     id="defs14" />
  <sodipodi:namedview
     pagecolor="#ffffff"
     bordercolor="#666666"
     borderopacity="1"
     objecttolerance="10"
     gridtolerance="10"
     guidetolerance="10"
     inkscape:pageopacity="0"
     inkscape:pageshadow="2"
     inkscape:window-width="1848"
     inkscape:window-height="1016"
     id="namedview12"
     showgrid="false"
     inkscape:zoom="1.888"
     inkscape:cx="-106.09026"
     inkscape:cy="-6.150188"
     inkscape:window-x="1992"
     inkscape:window-y="27"
     inkscape:window-maximized="1"
     inkscape:current-layer="svg10" />
  <g
     transform="translate(-6.9906867,-993.89375)"
     id="g4"
     style="fill:#3b4856;fill-opacity:1">
    <path
       style="color:#000000;text-indent:0;text-transform:none;direction:ltr;baseline-shift:baseline;display:inline;overflow:visible;visibility:visible;fill:#3b4856;fill-opacity:1;fill-rule:evenodd;stroke:none;enable-background:accumulate"
       d="m 27.139905,993.89399 c -7.5463,-0.0297 -15.0347,2.69103 -19.9506004,9.52221 a 1.0001,1.0001 0 1 0 1.6231,1.1684 c 4.5041004,-6.25882 11.2510004,-8.71842 18.3197004,-8.69061 7.0687,0.0278 14.4041,2.61691 19.6953,6.41841 a 1.0001,1.0001 0 0 0 0,3e-4 c 8.184,5.8778 17.4226,8.7679 25.7678,8.501 8.3452,-0.2669 15.8409,-3.7439 20.246,-10.5713 a 1.0001,1.0001 0 1 0 -1.6807,-1.08404 c -4.0148,6.22254 -10.7942,9.40564 -18.629,9.65624 -7.8348,0.2506 -16.6812,-2.4843 -24.5372,-8.1265 v 3e-4 c -5.6488,-4.05853 -13.308,-6.76474 -20.8544,-6.79443 z"
       marker="none"
       visibility="visible"
       display="inline"
       overflow="visible"
       id="path2"
       inkscape:connector-curvature="0" />
  </g>
</svg>
